<?xml version="1.0" encoding="utf-8"?><svg xmlns="http://www.w3.org/2000/svg" xmlns:xlink="http://www.w3.org/1999/xlink" width="1844" height="802" preserveAspectRatio="xMidYMid" viewBox="0 0 1844 802" style="z-index:1;margin-right:-2px;display:block;background-repeat-y:initial;background-repeat-x:initial;background-color:rgb(255, 255, 255);animation-play-state:paused" ><g transform="translate(922,401) scale(1,1) translate(-922,-401)" style="transform:matrix(1, 0, 0, 1, 0, 0);animation-play-state:paused" ><linearGradient id="lg-0.9207194382492407" x1="0" x2="1" y1="0" y2="0" style="animation-play-state:paused" ><stop stop-color="#ff00ff" offset="0" style="animation-play-state:paused" ></stop>

  
<stop stop-color="#00ffff" offset="1" style="animation-play-state:paused" ></stop></linearGradient>
<path d="M 0 0 L 0 799.444 Q 184.4 706.068 368.8 663.354 T 737.6 623.331 T 1106.4 522.63 T 1475.2 440.401 T 1844 369.072 L 1844 0 Z" fill="url(#lg-0.9207194382492407)" opacity="0.4" style="opacity:0.4;animation-play-state:paused" ></path>
<path d="M 0 0 L 0 681.162 Q 184.4 700.766 368.8 682.179 T 737.6 612.015 T 1106.4 430.457 T 1475.2 394.289 T 1844 332.01 L 1844 0 Z" fill="url(#lg-0.9207194382492407)" opacity="0.4" style="opacity:0.4;animation-play-state:paused" ></path>
<path d="M 0 0 L 0 762.177 Q 184.4 714.839 368.8 685.892 T 737.6 572.989 T 1106.4 451.186 T 1475.2 392.067 T 1844 299.22 L 1844 0 Z" fill="url(#lg-0.9207194382492407)" opacity="0.4" style="opacity:0.4;animation-play-state:paused" ></path>
<path d="M 0 0 L 0 749.604 Q 184.4 733.732 368.8 710.942 T 737.6 546.327 T 1106.4 551.549 T 1475.2 385.427 T 1844 344.111 L 1844 0 Z" fill="url(#lg-0.9207194382492407)" opacity="0.4" style="opacity:0.4;animation-play-state:paused" ></path>
<path d="M 0 0 L 0 729.408 Q 184.4 676.07 368.8 640.454 T 737.6 585.412 T 1106.4 485.555 T 1475.2 417.326 T 1844 295.516 L 1844 0 Z" fill="url(#lg-0.9207194382492407)" opacity="0.4" style="opacity:0.4;animation-play-state:paused" ></path></g></svg>